# xmcd
#
# Track frame offsets: 
#        150
#        29345
#        48954
#        77832
#        109382
#        127747
#        149019
#        172662
#        194026
#        211371
#
# Disc length: 3188 seconds
#
# Revision: 0
# Processed by: cddbd v1.5.2PL0 Copyright (c) Steve Scherf et al.
# Submitted via: ExactAudioCopy v1.0b3
#
DISCID=8c0c720a
DTITLE=Phuong Dung - Nhung Doi Hoa Sim
DYEAR=1996
DGENRE=
TTITLE0=Bien man
TTITLE1=Gio nay anh o dau
TTITLE2=Anh di chien dich
TTITLE3=Nhung doi hoa sim
TTITLE4=Ai cho toi tinh yeu
TTITLE5=Bay ngan dem gop lai
TTITLE6=Tha La xom dao
TTITLE7=Noi buon dem dong
TTITLE8=Vong tay giu tron an tinh
TTITLE9=Ta tu trong dem
EXTD=
EXTT0=
EXTT1=
EXTT2=
EXTT3=
EXTT4=
EXTT5=
EXTT6=
EXTT7=
EXTT8=
EXTT9=
PLAYORDER=
